<svg fill="#000000" width="24px" height="24px" viewBox="0 0 1024 1024" version="1.1" xmlns="http://www.w3.org/2000/svg">
<style type="text/css">
	.st0{fill:#B7BCCE;}
	.st1{fill:#858EAF;}
	.st2{fill:#FFFFFF;}
</style>
<circle class="st0" cx="623.5" cy="290" r="10.8"/>
<circle class="st0" cx="713.7" cy="290" r="10.8"/>
<path class="st1" d="M735.6,495.1H602.7v-15c0-6.7,5.4-12.1,12.1-12.1h108.7c6.7,0,12.1,5.4,12.1,12.1V495.1z"/>
<path class="st0" d="M709.6,468.1h-79.2v-15c0-6.7,5.4-12.1,12.1-12.1h55c6.7,0,12.1,5.4,12.1,12.1V468.1z"/>
<g id="x9lCYx.tif">
	<g>
		<path d="M714.1,462.2c3.3,0,6.3,0.1,9.3,0c11.7-0.4,19.9,8.5,19.3,19.3c-0.2,4.3,0,8.7-0.1,13c-0.1,3.9-1.8,5.6-5.7,5.6
			c-15.1,0-30.3,0-45.4,0c-3.7,0-5.9-1.8-5.9-4.9c0-3,2.2-5,5.9-5c12.7,0,25.3,0,38,0c1,0,2,0,3.1,0c0-4.1,0.3-8-0.1-11.9
			c-0.3-3-2.6-5-5.6-5.7c-1.2-0.3-2.5-0.3-3.7-0.3c-36.4,0-72.7,0-109.1,0c-1.2,0-2.5,0.1-3.7,0.3c-3,0.7-5.5,3.4-5.7,6.5
			c-0.2,3.6,0,7.1,0,11.1c1.1,0,2,0,3,0c12.2,0,24.5,0,36.7,0c0.8,0,1.7,0,2.5,0.1c2.9,0.3,4.9,2.4,4.8,5.1
			c-0.1,2.8-2.1,4.8-5.3,4.8c-10,0-20,0-30,0c-5.4,0-10.8,0-16.2,0c-3.8,0-5.5-1.8-5.6-5.5c-0.1-4.7-0.1-9.5,0-14.2
			c0.1-10.6,7.5-17.9,18.1-18.2c3.3-0.1,6.6,0,10.4,0c0-2.8,0.1-5.5,0-8.1c-0.7-11.4,8-19.9,19.4-19.5c2.4,0.1,5.3,0.6,7-0.5
			c1.6-1.1,2-4,2.9-6.2c3.4-8.3,6.8-16.6,10.1-24.9c0.5-1.2,0.4-2.8,0-3.9c-3.9-9.9-8-19.7-11.9-29.6c-0.7-1.8-1.5-2.3-3.5-2.1
			c-9.8,1.1-18.2,5.7-26.1,11.1c-6.3,4.3-12.5,8.8-19,12.9c-7.8,5.1-16.2,8.9-25.6,10c-2.4,0.3-4.8,0.2-7.2,0.3
			c-3,0.1-4.8-1.3-5.9-4c-5-12.3-10-24.6-15-37c-2.3-5.8-4.7-11.5-7-17.3c-1.4-3.6,0.7-7.2,4.5-7c12.2,0.5,22.3-4.6,31.9-11.1
			c7.3-4.9,14.5-10.1,22-14.7c4.3-2.7,9-4.5,14.3-7.1c-0.6-0.3-1.4-0.5-1.9-1c-7-6.5-7.3-17.1-0.9-23.9c6.4-6.8,17-7.1,23.8-0.8
			c6.9,6.4,7.2,17,0.7,24c-1,1.1-1.4,1.9-0.8,3.4c10.9,26.8,21.8,53.6,32.7,80.3c0.2,0.6,0.5,1.1,1,2.1c0.5-1,0.8-1.6,1.1-2.3
			c10.8-26.6,21.6-53.3,32.5-79.9c0.6-1.5,0.6-2.4-0.6-3.6c-6.5-6.8-6.2-17.4,0.6-23.8s17.4-6.2,23.8,0.5c6.5,6.8,6.2,17.4-0.6,24
			c-0.5,0.5-1,0.9-1.7,1.6c1.5,0.6,2.8,1.1,4.1,1.6c9.5,3.7,17.6,9.7,25.8,15.5c6.6,4.6,13.2,9.3,20.8,12.3c5.1,2,10.3,3.1,15.8,3
			c5.4-0.1,7.5,3.1,5.5,8.1c-7.2,17.7-14.4,35.4-21.5,53.1c-1.1,2.8-3,4.1-6,4.2c-11.1,0.3-21.2-3.2-30.4-9
			c-7.3-4.6-14.3-9.7-21.5-14.5c-6.9-4.6-14-8.7-22.3-10.3c-5.9-1.1-5.9-1.2-8.1,4.2c-3.7,9-7.4,18-10.9,27c-0.4,1.1-0.4,2.6,0,3.7
			c3.9,10,8,19.9,12,29.8c0.6,1.5,1.3,2,2.9,2c3.2,0,6.3-0.1,9.5,0.3c8.4,1.1,14.6,8,14.9,16.5C714.3,454.9,714.1,458.4,714.1,462.2
			z M784,346.3c-0.5-0.2-0.9-0.4-1.3-0.4c-9.1-1.2-17.2-4.9-24.8-9.8c-6.5-4.3-12.9-8.9-19.4-13.2c-7.9-5.3-16.2-9.8-25.9-10.8
			c-1.9-0.2-2.6,0.4-3.3,2c-5.5,13.7-11.1,27.4-16.7,41.1c-0.3,0.7-0.5,1.5-0.8,2.4c10.4,1.2,19.2,5.4,27.5,11
			c7.3,4.9,14.5,10,21.9,14.8c6.5,4.2,13.5,7.2,21.2,8.2c2.1,0.3,3.4-0.1,4.2-2.4c2.4-6.5,5.1-12.8,7.7-19.2
			C777.6,362.1,780.8,354.2,784,346.3z M553.4,346.2c0,0.3,0,0.5,0,0.6c5.9,14.5,11.7,28.9,17.7,43.4c0.3,0.7,1.7,1.5,2.3,1.4
			c4.4-0.9,9-1.4,12.9-3.4c7.3-3.7,14.3-8.2,21.1-12.7c7.7-5.1,15-10.8,23.7-14.2c4.5-1.8,9.3-2.9,14-4.3c0-0.1,0-0.5-0.2-0.8
			c-5.8-14.3-11.6-28.6-17.4-42.9c-0.6-1.5-1.5-1.5-2.7-1.3c-8.1,0.7-15.3,3.8-22,8.2c-6.7,4.4-13.2,9-19.8,13.5
			c-7.3,4.9-15,9.3-23.7,11.3C557.4,345.4,555.4,345.8,553.4,346.2z M633.1,462c23.8,0,47.3,0,71.1,0c0-2.9,0-5.6,0-8.3
			c0-6.1-3-9-9-9c-9.6,0-19.3,0-28.9,0c-8.3,0-16.6,0-24.9,0c-4.3,0-7.8,2.6-8.1,6.3C632.9,454.5,633.1,458.2,633.1,462z
			 M660.4,434.5c5.6,0,10.8,0,16.4,0c-2.7-6.7-5.3-13.1-8.2-20.1C665.7,421.4,663.1,427.8,660.4,434.5z M630.4,289.9
			c-0.1-3.8-3.1-6.7-6.9-6.7c-3.9,0-6.9,3.1-6.8,7.1c0.1,3.8,3.2,6.7,7,6.6S630.4,293.7,630.4,289.9z M713.6,296.8
			c3.9,0,6.9-2.9,6.9-6.6c0.1-3.9-3-7-6.9-7c-3.8,0-6.8,3-6.8,6.8C706.9,293.8,709.8,296.8,713.6,296.8z"/>
		<path d="M668.9,500.1c-2.7-0.1-4.9-2.3-4.8-5c0.1-2.7,2.6-5,5.3-4.9s4.8,2.5,4.6,5.2C673.9,498.1,671.7,500.1,668.9,500.1z"/>
		<path class="st2" d="M660.4,434.5c2.7-6.7,5.3-13.1,8.2-20.1c2.9,7,5.5,13.5,8.2,20.1C671.2,434.5,666,434.5,660.4,434.5z"/>
	</g>
</g>
</svg>
